Coordinates
version=1
nRows=25
nColumns=38
inDegrees=no

Units are S.I. units (second, meters, Newtons, ...)
If the header above contains a line with 'inDegrees', this indicates whether rotational values are in degrees (yes) or radians (no).

endheader
time	pelvis_tilt	pelvis_list	pelvis_rotation	pelvis_tx	pelvis_ty	pelvis_tz	hip_flexion_r	hip_adduction_r	hip_rotation_r	knee_angle_r	ankle_angle_r	subtalar_angle_r	mtp_angle_r	hip_flexion_l	hip_adduction_l	hip_rotation_l	knee_angle_l	ankle_angle_l	subtalar_angle_l	mtp_angle_l	lumbar_extension	lumbar_bending	lumbar_rotation	arm_flex_r	arm_add_r	arm_rot_r	elbow_flex_r	pro_sup_r	wrist_flex_r	wrist_dev_r	arm_flex_l	arm_add_l	arm_rot_l	elbow_flex_l	pro_sup_l	wrist_flex_l	wrist_dev_l
2.77	-0.34166	-0.0737642	-0.0941829	1.17296	0.974428	-0.441695	0.799826	0.17805	-0.309298	-0.142436	0.448635	0.393104	0	-0.0298628	-0.0840061	-0.152899	-1.23368	-0.0488437	0.113829	0	0.0648652	0.195247	-0.133822	-0.98508	-0.153988	-0.227678	2.14265	1.68188	0	0	-0.276244	-0.341651	0.102722	2.1667	1.61231	0	0
2.78	-0.333089	-0.080583	-0.0950006	1.17133	0.968123	-0.441129	0.785662	0.18042	-0.323571	-0.177013	0.410988	0.379444	0	0.00305507	-0.11093	-0.166572	-1.36572	-0.0217783	0.08859	0	0.0486428	0.200068	-0.121415	-0.928248	-0.168113	-0.210637	2.11501	1.68657	0	0	-0.301261	-0.332738	0.0922435	2.10525	1.60334	0	0
2.79	-0.326436	-0.0889614	-0.0974423	1.16906	0.960941	-0.44055	0.783418	0.180753	-0.338003	-0.247806	0.382711	0.3644	0	0.0428256	-0.140015	-0.176016	-1.49385	0.010444	0.0638569	0	0.0331332	0.207309	-0.105896	-0.867432	-0.18431	-0.192112	2.08513	1.68718	0	0	-0.325339	-0.320548	0.0790968	2.03948	1.60083	0	0
2.8	-0.321521	-0.0988608	-0.101644	1.16616	0.953255	-0.43998	0.789632	0.18037	-0.350755	-0.346274	0.369371	0.350786	0	0.0894692	-0.170174	-0.179746	-1.61549	0.0472991	0.0436651	0	0.0179802	0.217007	-0.0867524	-0.803209	-0.201915	-0.172568	2.05413	1.68416	0	0	-0.348009	-0.30574	0.0640924	1.97101	1.60511	0	0
2.81	-0.318031	-0.110173	-0.1074	1.16273	0.945509	-0.439428	0.799215	0.18085	-0.359693	-0.46065	0.374473	0.340336	0	0.142915	-0.200342	-0.176894	-1.72829	0.0877594	0.0308603	0	0.00299587	0.228931	-0.0637984	-0.736427	-0.220029	-0.152802	2.02353	1.67864	0	0	-0.369299	-0.289302	0.0482232	1.902	1.61539	0	0
2.82	-0.315627	-0.12251	-0.11412	1.15894	0.93816	-0.438897	0.806623	0.183332	-0.363282	-0.578372	0.399042	0.33409	0	0.20295	-0.229272	-0.167225	-1.83006	0.130432	0.026348	0	-0.0116473	0.242385	-0.0372902	-0.668368	-0.237525	-0.13394	1.99533	1.67216	0	0	-0.389817	-0.272552	0.0325895	1.83516	1.62983	0	0
2.83	-0.314068	-0.13508	-0.120877	1.15506	0.93162	-0.438386	0.806823	0.188073	-0.360981	-0.687911	0.441226	0.332492	0	0.269199	-0.255424	-0.151154	-1.91878	0.173709	0.0287993	0	-0.0252981	0.256127	-0.00795168	-0.600787	-0.253121	-0.117324	1.97187	1.66629	0	0	-0.410729	-0.257052	0.0182492	1.77366	1.64578	0	0
2.84	-0.3133	-0.146688	-0.126572	1.15139	0.92622	-0.437895	0.796014	0.194359	-0.3532	-0.780034	0.496468	0.335414	0	0.34108	-0.277002	-0.129741	-1.99267	0.215892	0.0348684	0	-0.0368562	0.26844	0.0231201	-0.535788	-0.265527	-0.104309	1.95566	1.66244	0	0	-0.433607	-0.244412	0.00600773	1.72088	1.66023	0	0
2.85	-0.313469	-0.155907	-0.13016	1.14819	0.922175	-0.437419	0.772026	0.200714	-0.341008	-0.848477	0.55829	0.342252	0	0.41775	-0.292158	-0.104635	-2.05031	0.255337	0.0399868	0	-0.0449633	0.277377	0.0546528	-0.475544	-0.273664	-0.0959864	1.949	1.66164	0	0	-0.460177	-0.236016	-0.00380327	1.67996	1.67033	0	0
2.86	-0.314863	-0.161338	-0.130895	1.14571	0.919587	-0.436953	0.734345	0.205339	-0.325768	-0.890006	0.619284	0.351976	0	0.498025	-0.299352	-0.0779325	-2.09072	0.290656	0.0395822	0	-0.0482964	0.281114	0.0854388	-0.421945	-0.276909	-0.0929104	1.95365	1.66453	0	0	-0.492031	-0.232735	-0.0114807	1.65336	1.67397	0	0
2.87	-0.317803	-0.161905	-0.128491	1.14412	0.918462	-0.436495	0.683849	0.206568	-0.308854	-0.904031	0.672046	0.36324	0	0.580356	-0.297709	-0.0519518	-2.11346	0.320945	0.0303894	0	-0.0458642	0.278308	0.114532	-0.376272	-0.275303	-0.0948928	1.97044	1.67136	0	0	-0.530383	-0.234691	-0.0179774	1.64244	1.67028	0	0
2.88	-0.322529	-0.157058	-0.123161	1.14351	0.91873	-0.436051	0.622374	0.203225	-0.291441	-0.892006	0.709868	0.374431	0	0.662861	-0.287228	-0.0289112	-2.11857	0.345898	0.0113046	0	-0.0372172	0.268348	0.141347	-0.339021	-0.269623	-0.100951	1.9991	1.68202	0	0	-0.57589	-0.241169	-0.0247651	1.64719	1.65976	0	0
2.89	-0.329101	-0.146841	-0.115527	1.14391	0.920269	-0.435638	0.552291	0.194785	-0.274398	-0.85684	0.727283	0.38381	0	0.743441	-0.268797	-0.0106301	-2.10658	0.365843	-0.0162677	0	-0.0225311	0.251413	0.165657	-0.3099	-0.261294	-0.109437	2.03828	1.69604	0	0	-0.628589	-0.250692	-0.0335702	1.66626	1.64412	0	0
2.9	-0.337354	-0.131825	-0.106454	1.1453	0.922923	-0.435281	0.476194	0.181356	-0.258235	-0.802497	0.720569	0.38974	0	0.819969	-0.244	0.00168165	-2.07835	0.381656	-0.0487033	0	-0.00256851	0.228371	0.187508	-0.287978	-0.252138	-0.118305	2.08575	1.71258	0	0	-0.687893	-0.261257	-0.046062	1.69716	1.6258	0	0
2.91	-0.346917	-0.112961	-0.0968488	1.14762	0.92651	-0.435	0.396751	0.163537	-0.243114	-0.733771	0.688193	0.390985	0	0.890505	-0.214819	0.00751836	-2.03499	0.39456	-0.0810265	0	0.0214584	0.200555	0.207095	-0.271922	-0.244059	-0.125458	2.13871	1.73046	0	0	-0.752654	-0.270673	-0.0635652	1.73676	1.60742	0	0
2.92	-0.35729	-0.0914108	-0.0875043	1.15074	0.930822	-0.434809	0.316643	0.142241	-0.228914	-0.656154	0.631069	0.387002	0	0.953507	-0.183298	0.00705483	-1.97773	0.40589	-0.108119	0	0.0480823	0.169527	0.224652	-0.260255	-0.238748	-0.129064	2.19418	1.74828	0	0	-0.82123	-0.276908	-0.0868431	1.78169	1.59129	0	0
2.93	-0.367951	-0.0684063	-0.0789959	1.15447	0.935637	-0.434705	0.23852	0.11855	-0.215272	-0.57565	0.55244	0.378068	0	1.00796	-0.151305	0.000979322	-1.90774	0.416929	-0.125735	0	0.0757786	0.136886	0.240371	-0.251597	-0.237472	-0.127823	2.24921	1.76445	0	0	-0.891557	-0.278407	-0.115968	1.82881	1.57914	0	0
2.94	-0.37844	-0.045153	-0.0716523	1.15858	0.940722	-0.434672	0.164896	0.0936646	-0.201572	-0.498452	0.457389	0.365116	0	1.05339	-0.120377	-0.00972953	-1.82606	0.428797	-0.131308	0	0.103119	0.10414	0.254375	-0.244868	-0.240952	-0.121125	2.3012	1.77742	0	0	-0.961226	-0.274311	-0.15028	1.87541	1.57194	0	0
2.95	-0.388396	-0.0227678	-0.0655761	1.1628	0.945847	-0.43468	0.0979658	0.0688696	-0.187003	-0.430532	0.352232	0.349504	0	1.08975	-0.0916706	-0.0240584	-1.73349	0.442367	-0.124248	0	0.12885	0.0726266	0.266717	-0.239418	-0.249339	-0.109106	2.34793	1.78589	0	0	-1.02757	-0.26457	-0.188445	1.91934	1.56994	0	0
2.96	-0.397541	-0.00224706	-0.0606864	1.16684	0.9508	-0.434687	0.039442	0.045511	-0.170687	-0.377249	0.243956	0.332717	0	1.11722	-0.0659731	-0.041171	-1.63064	0.45816	-0.105779	0	0.151912	0.0434758	0.277393	-0.23507	-0.262231	-0.0926075	2.38764	1.78903	0	0	-1.08782	-0.249929	-0.228606	1.95908	1.57279	0	0
2.97	-0.405641	0.0155414	-0.0567607	1.17046	0.955393	-0.434642	-0.00957651	0.0250023	-0.151709	-0.342958	0.139579	0.31572	0	1.13606	-0.0437626	-0.0605269	-1.518	0.476227	-0.0783375	0	0.17142	0.0176019	0.286333	-0.232063	-0.278745	-0.0730229	2.419	1.78671	0	0	-1.13927	-0.231802	-0.268607	1.99363	1.57969	0	0
2.98	-0.412475	0.029862	-0.0534621	1.17346	0.95947	-0.434484	-0.0486051	0.00873261	-0.129477	-0.330783	0.0455297	0.298771	0	1.14647	-0.0252351	-0.0818437	-1.39613	0.49597	-0.0449293	0	0.18666	-0.00429834	0.293386	-0.230929	-0.297618	-0.0520777	2.44109	1.77959	0	0	-1.17952	-0.212047	-0.306261	2.02249	1.58962	0	0
2.99	-0.417829	0.0401341	-0.0503653	1.17568	0.962906	-0.434155	-0.0776781	-0.00210028	-0.104152	-0.34251	-0.0330346	0.28145	0	1.14861	-0.0103067	-0.104947	-1.26595	0.515974	-0.00858076	0	0.197108	-0.0217542	0.298293	-0.232302	-0.317339	-0.0315506	2.45329	1.76903	0	0	-1.20675	-0.192684	-0.339607	2.04556	1.60149	0	0
3	-0.421512	0.045988	-0.0470107	1.17707	0.965598	-0.433601	-0.0972164	-0.00667776	-0.0767361	-0.378548	-0.092909	0.262548	0	1.14271	0.00135774	-0.129624	-1.12902	0.533972	0.0281203	0	0.202472	-0.0345486	0.300715	-0.236729	-0.336318	-0.0129861	2.45524	1.75675	0	0	-1.21991	-0.175602	-0.367119	2.06305	1.61429	0	0
3.01	-0.423387	0.0473508	-0.0429854	1.17766	0.967463	-0.432788	-0.107883	-0.00479165	-0.0490693	-0.438022	-0.133192	0.240376	0	1.12919	0.0102903	-0.155514	-0.987825	0.546971	0.0631215	0	0.202738	-0.0427605	0.300298	-0.244504	-0.353056	0.00253812	2.44678	1.74437	0	0	-1.21886	-0.162316	-0.387828	2.0754	1.62716	0	0
